M48
; DRILL file KiCad 10.0.0 date 2026-04-11T18:24:05
; FORMAT={-:-/ absolute / metric / decimal}
; #@! TF.CreationDate,2026-04-11T18:24:05+08:00
; #@! TF.GenerationSoftware,Kicad,Pcbnew,10.0.0
; #@! TF.FileFunction,Plated,1,2,PTH
FMAT,2
METRIC
; #@! TA.AperFunction,Plated,PTH,ViaDrill
T1C0.300
; #@! TA.AperFunction,Plated,PTH,ComponentDrill
T2C0.600
; #@! TA.AperFunction,Plated,PTH,ComponentDrill
T3C0.800
; #@! TA.AperFunction,Plated,PTH,ComponentDrill
T4C1.000
; #@! TA.AperFunction,Plated,PTH,ComponentDrill
T5C1.016
; #@! TA.AperFunction,Plated,PTH,ComponentDrill
T6C1.200
; #@! TA.AperFunction,Plated,PTH,ComponentDrill
T7C1.400
; #@! TA.AperFunction,Plated,PTH,ComponentDrill
T8C1.900
; #@! TA.AperFunction,Plated,PTH,ComponentDrill
T9C2.700
; #@! TA.AperFunction,Plated,PTH,ComponentDrill
T10C3.200
%
G90
G05
T1
X111.976Y-69.088
X111.976Y-113.538
X111.976Y-114.808
X111.976Y-116.078
X111.976Y-117.348
X111.976Y-118.618
X111.976Y-119.888
X111.976Y-121.158
X111.976Y-122.428
X111.976Y-123.698
X111.976Y-126.238
X111.976Y-128.778
X111.976Y-133.858
X111.976Y-136.398
X111.976Y-138.938
X113.246Y-70.358
X113.246Y-124.968
X113.246Y-127.508
X113.246Y-130.048
X113.246Y-135.128
X113.246Y-137.668
X114.516Y-71.628
X114.516Y-74.168
X114.516Y-114.808
X114.516Y-116.078
X114.516Y-117.348
X114.516Y-128.778
X114.516Y-131.318
X114.516Y-133.858
X114.516Y-136.398
X114.516Y-138.938
X115.786Y-75.438
X115.786Y-114.808
X115.786Y-116.078
X115.786Y-117.348
X115.786Y-130.048
X115.786Y-132.588
X115.786Y-135.128
X115.786Y-137.668
X117.056Y-76.708
X117.056Y-107.188
X117.056Y-114.808
X117.056Y-116.078
X117.056Y-117.348
X117.056Y-128.778
X117.056Y-131.318
X117.056Y-133.858
X117.056Y-136.398
X117.056Y-138.938
X118.326Y-77.978
X118.326Y-107.188
X118.326Y-108.458
X118.326Y-116.078
X118.326Y-117.348
X118.326Y-124.968
X118.326Y-127.508
X118.326Y-130.048
X118.326Y-132.588
X118.326Y-135.128
X118.326Y-137.668
X119.596Y-79.248
X119.596Y-107.188
X119.596Y-108.458
X119.596Y-116.078
X119.596Y-117.348
X119.596Y-131.318
X119.596Y-133.858
X119.596Y-136.398
X119.596Y-138.938
X120.866Y-107.188
X120.866Y-108.458
X120.866Y-116.078
X120.866Y-130.048
X120.866Y-131.318
X120.866Y-132.588
X120.866Y-135.128
X120.866Y-137.668
X122.136Y-107.188
X122.136Y-108.458
X122.136Y-116.078
X122.136Y-131.318
X122.136Y-133.858
X122.136Y-136.398
X122.136Y-138.938
X123.406Y-108.458
X123.406Y-116.078
X123.406Y-130.048
X123.406Y-132.588
X123.406Y-135.128
X123.406Y-137.668
X124.676Y-116.078
X124.676Y-131.318
X124.676Y-133.858
X124.676Y-136.398
X124.676Y-138.938
X125.946Y-130.048
X125.946Y-135.128
X125.946Y-137.668
X127.216Y-50.038
X127.216Y-51.308
X127.216Y-52.578
X127.216Y-53.848
X127.216Y-130.048
X127.216Y-131.318
X127.216Y-133.858
X127.216Y-136.398
X127.216Y-138.938
X128.486Y-128.778
X128.486Y-130.048
X128.486Y-131.318
X128.486Y-132.588
X128.486Y-135.128
X128.486Y-137.668
X129.756Y-130.048
X129.756Y-131.318
X129.756Y-132.588
X129.756Y-133.858
X129.756Y-136.398
X129.756Y-138.938
X131.026Y-131.318
X131.026Y-132.588
X131.026Y-133.858
X131.026Y-135.128
X131.026Y-137.668
X132.296Y-85.598
X132.296Y-88.138
X132.296Y-90.678
X132.296Y-93.218
X132.296Y-95.758
X132.296Y-98.298
X132.296Y-100.838
X132.296Y-103.378
X132.296Y-105.918
X132.296Y-108.458
X132.296Y-116.078
X132.296Y-118.618
X132.296Y-121.158
X132.296Y-123.698
X132.296Y-126.238
X132.296Y-128.778
X132.296Y-132.588
X132.296Y-133.858
X132.296Y-135.128
X132.296Y-136.398
X132.296Y-138.938
X133.566Y-130.048
X133.566Y-133.858
X133.566Y-135.128
X133.566Y-136.398
X133.946Y-84.772
X134.836Y-131.318
X134.836Y-135.128
X134.836Y-136.398
X136.106Y-57.658
X136.106Y-136.398
X136.69Y-84.806
X136.69Y-87.346
X136.69Y-89.886
X136.69Y-92.426
X136.69Y-94.966
X136.69Y-97.506
X136.69Y-100.046
X136.69Y-102.586
X136.69Y-105.126
X136.69Y-107.666
X136.69Y-110.206
X136.69Y-112.746
X136.69Y-115.286
X136.69Y-117.826
X136.69Y-120.366
X136.69Y-122.906
X136.69Y-125.446
X136.69Y-127.986
X136.69Y-130.526
X136.69Y-133.066
X137.376Y-58.928
X137.376Y-137.668
X138.646Y-55.118
X138.646Y-60.198
X139.916Y-52.578
X139.916Y-56.388
X139.916Y-61.468
X139.916Y-136.398
X139.916Y-140.208
X141.186Y-57.658
X141.186Y-62.738
X141.186Y-136.398
X141.186Y-137.668
X142.456Y-52.578
X142.456Y-58.928
X142.456Y-64.008
X142.456Y-136.398
X142.456Y-137.668
X142.456Y-138.938
X143.726Y-60.198
X143.726Y-65.278
X143.726Y-136.398
X143.726Y-137.668
X143.726Y-138.938
X144.996Y-52.578
X144.996Y-61.468
X144.996Y-66.548
X146.266Y-62.738
X146.266Y-67.818
X147.536Y-52.578
X147.536Y-135.128
X147.536Y-136.398
X147.536Y-137.668
X148.806Y-56.388
X148.806Y-58.928
X148.806Y-61.468
X148.806Y-70.358
X148.806Y-137.668
X150.076Y-55.118
X153.632Y-79.502
X153.886Y-52.578
X153.886Y-57.658
X153.886Y-60.198
X153.886Y-80.518
X153.886Y-83.058
X153.886Y-85.598
X153.886Y-88.138
X154.394Y-65.786
X154.648Y-91.694
X154.648Y-94.234
X154.648Y-97.282
X154.648Y-99.822
X154.648Y-109.982
X154.648Y-112.522
X154.648Y-115.062
X154.648Y-117.602
X154.648Y-122.682
X154.648Y-125.222
X155.156Y-126.238
X155.156Y-128.778
X155.156Y-131.318
X155.156Y-133.858
X155.156Y-136.398
X156.426Y-124.968
X156.426Y-127.508
X156.426Y-130.048
X156.426Y-132.588
X156.426Y-135.128
X156.934Y-59.69
X157.188Y-82.296
X157.696Y-57.658
X157.696Y-126.238
X157.696Y-128.778
X157.95Y-83.058
X158.966Y-52.578
X158.966Y-60.198
X158.966Y-62.738
X158.966Y-65.278
X158.966Y-67.818
X158.966Y-70.358
X158.966Y-75.438
X158.966Y-77.978
X158.966Y-85.598
X158.966Y-88.138
X158.966Y-127.508
X158.966Y-130.048
X159.474Y-57.15
X160.236Y-71.628
X160.236Y-76.708
X160.236Y-79.248
X160.236Y-84.328
X160.236Y-86.868
X160.236Y-105.918
X160.236Y-108.458
X160.236Y-110.998
X160.236Y-113.538
X160.236Y-116.078
X160.236Y-118.618
X160.236Y-121.158
X160.236Y-123.698
X160.236Y-128.778
X160.236Y-131.318
X161.506Y-52.578
X161.506Y-67.056
X161.506Y-99.568
X161.506Y-101.6
X162.014Y-64.008
X162.776Y-69.088
X162.776Y-71.628
X162.776Y-74.168
X162.776Y-79.248
X162.776Y-81.788
X162.776Y-84.328
X162.776Y-86.868
X162.776Y-105.918
X162.776Y-113.538
X162.776Y-116.078
X162.776Y-118.618
X162.776Y-121.158
X162.776Y-123.698
X162.776Y-126.238
X162.776Y-131.318
X162.776Y-133.858
X164.046Y-52.578
X164.046Y-67.818
X164.046Y-75.438
X164.046Y-83.058
X164.046Y-85.598
X164.046Y-88.138
X164.046Y-124.968
X164.046Y-127.508
X164.046Y-132.588
X164.046Y-135.128
X164.3Y-80.772
X165.316Y-66.548
X165.316Y-76.708
X165.316Y-81.788
X165.316Y-84.328
X165.316Y-86.868
X165.316Y-126.238
X165.316Y-128.778
X165.316Y-133.858
X166.586Y-62.738
X166.586Y-65.278
X166.586Y-70.358
X166.586Y-72.898
X166.586Y-75.438
X166.586Y-77.978
X166.586Y-127.508
X166.586Y-130.048
X166.586Y-135.128
X167.856Y-69.088
X167.856Y-128.778
X167.856Y-131.318
X167.856Y-136.398
X169.126Y-67.818
X169.126Y-70.358
X169.126Y-130.048
X169.126Y-132.588
X169.126Y-137.668
X170.396Y-52.578
X170.396Y-66.548
X170.396Y-69.088
X171.666Y-67.818
X174.206Y-122.428
X174.206Y-124.968
X174.206Y-127.508
X174.206Y-130.048
X174.206Y-132.588
X174.206Y-135.128
X174.206Y-137.668
X175.476Y-52.578
X175.476Y-105.918
X175.476Y-117.348
X175.476Y-123.698
X176.746Y-118.618
X176.746Y-124.968
X178.016Y-53.848
X178.016Y-98.298
X178.016Y-105.918
X178.016Y-119.888
X178.016Y-126.238
X179.286Y-55.118
X179.286Y-57.658
X179.286Y-60.198
X179.286Y-62.738
X179.286Y-121.158
X179.286Y-127.508
X180.556Y-64.008
X180.556Y-98.298
X180.556Y-105.918
X180.556Y-128.778
X181.826Y-62.738
X185.636Y-62.738
X186.906Y-90.678
X186.906Y-93.218
X186.906Y-95.758
X186.906Y-98.298
X186.906Y-100.838
X186.906Y-103.378
X186.906Y-105.918
X186.906Y-108.458
X186.906Y-110.998
X186.906Y-113.538
T3
X139.662Y-85.344
X139.662Y-88.844
X139.662Y-96.915
X139.662Y-100.415
X139.662Y-108.627
X139.662Y-112.127
X139.662Y-120.142
X139.662Y-123.642
X177.0Y-80.897
X177.0Y-84.397
T4
X112.354Y-94.752
X112.354Y-105.752
X112.392Y-80.274
X112.392Y-91.274
X112.484Y-65.914
X112.484Y-76.914
X113.5Y-47.244
X113.5Y-50.8
X113.5Y-53.34
X113.5Y-55.88
X113.5Y-58.42
X113.5Y-60.96
X116.04Y-47.244
X118.58Y-47.244
X121.12Y-47.244
X123.66Y-47.244
X127.216Y-47.244
X129.756Y-47.244
X132.296Y-47.244
X134.836Y-47.244
X136.868Y-68.152
X136.868Y-73.152
X137.376Y-47.244
X137.972Y-139.453
X140.932Y-47.244
X143.472Y-47.244
X146.012Y-47.244
X147.028Y-84.074
X147.028Y-86.614
X147.028Y-89.154
X147.028Y-95.589
X147.028Y-98.129
X147.028Y-100.669
X147.028Y-107.103
X147.028Y-109.643
X147.028Y-112.183
X147.028Y-118.618
X147.028Y-121.158
X147.028Y-123.698
X148.552Y-47.244
X148.972Y-139.453
X151.092Y-47.244
X154.648Y-47.244
X157.188Y-47.244
X159.728Y-47.244
X162.268Y-47.244
X164.808Y-47.244
X168.364Y-47.244
X170.904Y-47.244
X173.444Y-47.244
X175.984Y-47.244
X178.524Y-47.244
T5
X182.334Y-85.598
X182.334Y-88.138
X182.334Y-90.678
X182.334Y-93.218
X182.334Y-95.758
X182.334Y-98.298
X182.334Y-100.838
X182.334Y-103.378
X182.334Y-105.918
X182.334Y-108.458
X182.334Y-110.998
X182.334Y-113.538
X182.334Y-116.078
X182.334Y-118.618
X182.334Y-121.158
X182.334Y-123.698
X182.334Y-126.238
X182.334Y-128.778
X182.334Y-131.318
X182.334Y-133.858
X184.874Y-85.598
X184.874Y-88.138
X184.874Y-90.678
X184.874Y-93.218
X184.874Y-95.758
X184.874Y-98.298
X184.874Y-100.838
X184.874Y-103.378
X184.874Y-105.918
X184.874Y-108.458
X184.874Y-110.998
X184.874Y-113.538
X184.874Y-116.078
X184.874Y-118.618
X184.874Y-121.158
X184.874Y-123.698
X184.874Y-126.238
X184.874Y-128.778
X184.874Y-131.318
X184.874Y-133.858
T6
X126.832Y-83.293
X126.832Y-88.293
X126.832Y-97.662
X126.832Y-102.662
T7
X115.222Y-119.088
X115.222Y-121.588
X118.722Y-119.088
X118.722Y-121.588
X124.522Y-119.088
X124.522Y-121.588
X128.022Y-119.088
X128.022Y-121.588
T8
X117.354Y-97.752
X117.354Y-102.752
X117.392Y-83.274
X117.392Y-88.274
X122.484Y-68.914
X122.484Y-73.914
X140.972Y-129.453
X145.972Y-129.453
T9
X115.742Y-126.454
X122.942Y-126.454
T10
X114.516Y-110.744
X118.834Y-52.324
X184.112Y-48.514
T2
X112.592Y-133.004G85X112.592Y-131.904
G05
X126.092Y-133.004G85X126.092Y-131.904
G05
M30
