%TF.GenerationSoftware,KiCad,Pcbnew,10.0.0*%
%TF.CreationDate,2026-04-11T18:23:58+08:00*%
%TF.ProjectId,PCB v0.1,50434220-7630-42e3-912e-6b696361645f,A*%
%TF.SameCoordinates,Original*%
%TF.FileFunction,Paste,Top*%
%TF.FilePolarity,Positive*%
%FSLAX46Y46*%
G04 Gerber Fmt 4.6, Leading zero omitted, Abs format (unit mm)*
G04 Created by KiCad (PCBNEW 10.0.0) date 2026-04-11 18:23:58*
%MOMM*%
%LPD*%
G01*
G04 APERTURE LIST*
G04 Aperture macros list*
%AMRoundRect*
0 Rectangle with rounded corners*
0 $1 Rounding radius*
0 $2 $3 $4 $5 $6 $7 $8 $9 X,Y pos of 4 corners*
0 Add a 4 corners polygon primitive as box body*
4,1,4,$2,$3,$4,$5,$6,$7,$8,$9,$2,$3,0*
0 Add four circle primitives for the rounded corners*
1,1,$1+$1,$2,$3*
1,1,$1+$1,$4,$5*
1,1,$1+$1,$6,$7*
1,1,$1+$1,$8,$9*
0 Add four rect primitives between the rounded corners*
20,1,$1+$1,$2,$3,$4,$5,0*
20,1,$1+$1,$4,$5,$6,$7,0*
20,1,$1+$1,$6,$7,$8,$9,0*
20,1,$1+$1,$8,$9,$2,$3,0*%
G04 Aperture macros list end*
%ADD10RoundRect,0.250000X0.450000X-0.350000X0.450000X0.350000X-0.450000X0.350000X-0.450000X-0.350000X0*%
%ADD11RoundRect,0.250000X1.400000X2.000000X-1.400000X2.000000X-1.400000X-2.000000X1.400000X-2.000000X0*%
%ADD12RoundRect,0.150000X-0.150000X-0.625000X0.150000X-0.625000X0.150000X0.625000X-0.150000X0.625000X0*%
%ADD13RoundRect,0.250000X-0.350000X-0.650000X0.350000X-0.650000X0.350000X0.650000X-0.350000X0.650000X0*%
%ADD14RoundRect,0.250000X0.275000X0.350000X-0.275000X0.350000X-0.275000X-0.350000X0.275000X-0.350000X0*%
%ADD15RoundRect,0.250000X1.275000X1.125000X-1.275000X1.125000X-1.275000X-1.125000X1.275000X-1.125000X0*%
%ADD16RoundRect,0.250000X0.850000X0.350000X-0.850000X0.350000X-0.850000X-0.350000X0.850000X-0.350000X0*%
%ADD17RoundRect,0.250000X0.350000X0.450000X-0.350000X0.450000X-0.350000X-0.450000X0.350000X-0.450000X0*%
%ADD18RoundRect,0.250000X-0.412500X-0.650000X0.412500X-0.650000X0.412500X0.650000X-0.412500X0.650000X0*%
%ADD19RoundRect,0.250000X-0.650000X0.412500X-0.650000X-0.412500X0.650000X-0.412500X0.650000X0.412500X0*%
%ADD20RoundRect,0.250000X-0.450000X0.350000X-0.450000X-0.350000X0.450000X-0.350000X0.450000X0.350000X0*%
%ADD21R,3.800000X2.200000*%
%ADD22R,2.200000X3.800000*%
%ADD23RoundRect,0.250000X-0.375000X-0.625000X0.375000X-0.625000X0.375000X0.625000X-0.375000X0.625000X0*%
%ADD24RoundRect,0.250000X-0.350000X0.275000X-0.350000X-0.275000X0.350000X-0.275000X0.350000X0.275000X0*%
%ADD25RoundRect,0.250000X-0.275000X-0.350000X0.275000X-0.350000X0.275000X0.350000X-0.275000X0.350000X0*%
%ADD26RoundRect,0.250000X-0.350000X-0.450000X0.350000X-0.450000X0.350000X0.450000X-0.350000X0.450000X0*%
%ADD27RoundRect,0.250000X0.650000X-1.000000X0.650000X1.000000X-0.650000X1.000000X-0.650000X-1.000000X0*%
%ADD28RoundRect,0.250000X-0.450000X0.325000X-0.450000X-0.325000X0.450000X-0.325000X0.450000X0.325000X0*%
%ADD29R,1.200000X1.200000*%
%ADD30RoundRect,0.250000X0.625000X-0.375000X0.625000X0.375000X-0.625000X0.375000X-0.625000X-0.375000X0*%
G04 APERTURE END LIST*
D10*
%TO.C,R5*%
X157950000Y-55880000D03*
X157950000Y-53880000D03*
%TD*%
D11*
%TO.C,D3*%
X128232000Y-74250000D03*
X128232000Y-65450000D03*
%TD*%
D12*
%TO.C,J13*%
X149838000Y-56881000D03*
X150838000Y-56881000D03*
X151838000Y-56881000D03*
D13*
X148538000Y-54356000D03*
X153138000Y-54356000D03*
%TD*%
D14*
%TO.C,FB3*%
X178873500Y-100838000D03*
X176573500Y-100838000D03*
%TD*%
D15*
%TO.C,Q1*%
X122997000Y-113682500D03*
X122997000Y-110632500D03*
X119647000Y-113682500D03*
X119647000Y-110632500D03*
D16*
X127622000Y-114437500D03*
X127622000Y-109877500D03*
%TD*%
D17*
%TO.C,R2*%
X178723500Y-113538000D03*
X176723500Y-113538000D03*
%TD*%
D18*
%TO.C,C4*%
X176161000Y-110998000D03*
X179286000Y-110998000D03*
%TD*%
D12*
%TO.C,J15*%
X149838000Y-76439000D03*
X150838000Y-76439000D03*
X151838000Y-76439000D03*
D13*
X148538000Y-73914000D03*
X153138000Y-73914000D03*
%TD*%
D19*
%TO.C,C7*%
X170904000Y-81241500D03*
X170904000Y-84366500D03*
%TD*%
D18*
%TO.C,C3*%
X176161000Y-103378000D03*
X179286000Y-103378000D03*
%TD*%
D20*
%TO.C,R4*%
X160236000Y-53880000D03*
X160236000Y-55880000D03*
%TD*%
D21*
%TO.C,A1*%
X152578000Y-90678000D03*
X152578000Y-93218000D03*
X152578000Y-95758000D03*
X152578000Y-98298000D03*
X152578000Y-100838000D03*
X152578000Y-103378000D03*
X152578000Y-105918000D03*
X152578000Y-108458000D03*
X152578000Y-110998000D03*
X152578000Y-113538000D03*
X152578000Y-116078000D03*
X152578000Y-118618000D03*
X152578000Y-121158000D03*
X152578000Y-123698000D03*
X152578000Y-126238000D03*
X152578000Y-128778000D03*
X152578000Y-131318000D03*
X152578000Y-133858000D03*
X152578000Y-136398000D03*
X152578000Y-138938000D03*
D22*
X159728000Y-139508000D03*
X162268000Y-139508000D03*
X164808000Y-139508000D03*
D21*
X171958000Y-90678000D03*
X171958000Y-93218000D03*
X171958000Y-95758000D03*
X171958000Y-98298000D03*
X171958000Y-100838000D03*
X171958000Y-103378000D03*
X171958000Y-105918000D03*
X171958000Y-108458000D03*
X171958000Y-110998000D03*
X171958000Y-113538000D03*
X171958000Y-116078000D03*
X171958000Y-118618000D03*
X171958000Y-121158000D03*
X171958000Y-123698000D03*
X171958000Y-126238000D03*
X171958000Y-128778000D03*
X171958000Y-131318000D03*
X171958000Y-133858000D03*
X171958000Y-136398000D03*
X171958000Y-138938000D03*
%TD*%
D20*
%TO.C,R8*%
X167094000Y-53880000D03*
X167094000Y-55880000D03*
%TD*%
D23*
%TO.C,F3*%
X176362000Y-93218000D03*
X179162000Y-93218000D03*
%TD*%
D20*
%TO.C,R7*%
X164808000Y-53880000D03*
X164808000Y-55880000D03*
%TD*%
D12*
%TO.C,J18*%
X173206000Y-76509000D03*
X174206000Y-76509000D03*
X175206000Y-76509000D03*
D13*
X171906000Y-73984000D03*
X176506000Y-73984000D03*
%TD*%
D12*
%TO.C,J14*%
X149838000Y-66533000D03*
X150838000Y-66533000D03*
X151838000Y-66533000D03*
D13*
X148538000Y-64008000D03*
X153138000Y-64008000D03*
%TD*%
D24*
%TO.C,FB1*%
X179032000Y-88378000D03*
X179032000Y-90678000D03*
%TD*%
D20*
%TO.C,R6*%
X162522000Y-53880000D03*
X162522000Y-55880000D03*
%TD*%
D25*
%TO.C,FB2*%
X176650500Y-95758000D03*
X178950500Y-95758000D03*
%TD*%
D26*
%TO.C,R3*%
X176723500Y-116078000D03*
X178723500Y-116078000D03*
%TD*%
D27*
%TO.C,D4*%
X183858000Y-66008000D03*
X183858000Y-62008000D03*
%TD*%
D28*
%TO.C,D6*%
X160390667Y-62027000D03*
X160390667Y-64077000D03*
%TD*%
D29*
%TO.C,D2*%
X176346000Y-108458000D03*
X179146000Y-108458000D03*
%TD*%
D30*
%TO.C,F2*%
X176492000Y-90678000D03*
X176492000Y-87878000D03*
%TD*%
D29*
%TO.C,D1*%
X130896000Y-109944000D03*
X133696000Y-109944000D03*
%TD*%
D28*
%TO.C,D7*%
X164631333Y-62027000D03*
X164631333Y-64077000D03*
%TD*%
%TO.C,D5*%
X156150000Y-62027000D03*
X156150000Y-64077000D03*
%TD*%
D12*
%TO.C,J16*%
X173206000Y-56951000D03*
X174206000Y-56951000D03*
X175206000Y-56951000D03*
D13*
X171906000Y-54426000D03*
X176506000Y-54426000D03*
%TD*%
D28*
%TO.C,D8*%
X168872000Y-61967000D03*
X168872000Y-64017000D03*
%TD*%
D26*
%TO.C,R1*%
X131296000Y-114516000D03*
X133296000Y-114516000D03*
%TD*%
D12*
%TO.C,J17*%
X173206000Y-66603000D03*
X174206000Y-66603000D03*
X175206000Y-66603000D03*
D13*
X171906000Y-64078000D03*
X176506000Y-64078000D03*
%TD*%
M02*
