%TF.GenerationSoftware,KiCad,Pcbnew,10.0.0*%
%TF.CreationDate,2026-04-12T01:40:27+08:00*%
%TF.ProjectId,PCB v0.2,50434220-7630-42e3-922e-6b696361645f,A*%
%TF.SameCoordinates,Original*%
%TF.FileFunction,Soldermask,Bot*%
%TF.FilePolarity,Negative*%
%FSLAX46Y46*%
G04 Gerber Fmt 4.6, Leading zero omitted, Abs format (unit mm)*
G04 Created by KiCad (PCBNEW 10.0.0) date 2026-04-12 01:40:27*
%MOMM*%
%LPD*%
G01*
G04 APERTURE LIST*
G04 Aperture macros list*
%AMRoundRect*
0 Rectangle with rounded corners*
0 $1 Rounding radius*
0 $2 $3 $4 $5 $6 $7 $8 $9 X,Y pos of 4 corners*
0 Add a 4 corners polygon primitive as box body*
4,1,4,$2,$3,$4,$5,$6,$7,$8,$9,$2,$3,0*
0 Add four circle primitives for the rounded corners*
1,1,$1+$1,$2,$3*
1,1,$1+$1,$4,$5*
1,1,$1+$1,$6,$7*
1,1,$1+$1,$8,$9*
0 Add four rect primitives between the rounded corners*
20,1,$1+$1,$2,$3,$4,$5,0*
20,1,$1+$1,$4,$5,$6,$7,0*
20,1,$1+$1,$6,$7,$8,$9,0*
20,1,$1+$1,$8,$9,$2,$3,0*%
G04 Aperture macros list end*
%ADD10C,1.400000*%
%ADD11RoundRect,0.770000X0.980000X0.980000X-0.980000X0.980000X-0.980000X-0.980000X0.980000X-0.980000X0*%
%ADD12C,3.500000*%
%ADD13RoundRect,0.770000X0.980000X-0.980000X0.980000X0.980000X-0.980000X0.980000X-0.980000X-0.980000X0*%
%ADD14R,0.900000X2.000000*%
%ADD15RoundRect,1.025000X1.025000X1.025000X-1.025000X1.025000X-1.025000X-1.025000X1.025000X-1.025000X0*%
%ADD16C,4.100000*%
%ADD17RoundRect,0.250000X-0.550000X0.550000X-0.550000X-0.550000X0.550000X-0.550000X0.550000X0.550000X0*%
%ADD18C,1.600000*%
%ADD19R,1.700000X1.700000*%
%ADD20C,1.700000*%
%ADD21C,2.200000*%
%ADD22C,1.850000*%
%ADD23RoundRect,0.250001X-0.949999X0.949999X-0.949999X-0.949999X0.949999X-0.949999X0.949999X0.949999X0*%
%ADD24C,2.400000*%
%ADD25RoundRect,0.250000X0.750000X-0.750000X0.750000X0.750000X-0.750000X0.750000X-0.750000X-0.750000X0*%
%ADD26C,2.000000*%
%ADD27C,5.600000*%
%ADD28C,2.750000*%
%ADD29R,1.750000X1.750000*%
%ADD30C,1.750000*%
G04 APERTURE END LIST*
D10*
%TO.C,J6*%
X149010000Y-139453000D03*
X138010000Y-139453000D03*
D11*
X141010000Y-129453000D03*
D12*
X146010000Y-129453000D03*
%TD*%
%TO.C,J5*%
X117402000Y-97830000D03*
D13*
X117402000Y-102830000D03*
D10*
X112402000Y-94830000D03*
X112402000Y-105830000D03*
%TD*%
%TO.C,J4*%
X112522000Y-76532000D03*
X112522000Y-65532000D03*
D13*
X122522000Y-68532000D03*
D12*
X122522000Y-73532000D03*
%TD*%
D14*
%TO.C,J1*%
X126384000Y-132454000D03*
X112884000Y-132454000D03*
D15*
X123234000Y-126454000D03*
D16*
X116034000Y-126454000D03*
%TD*%
D10*
%TO.C,J3*%
X112402000Y-91352000D03*
X112402000Y-80352000D03*
D13*
X117402000Y-88352000D03*
D12*
X117402000Y-83352000D03*
%TD*%
D17*
%TO.C,C8*%
X139662000Y-85344000D03*
D18*
X139662000Y-88844000D03*
%TD*%
D19*
%TO.C,J10*%
X140932000Y-47244000D03*
D20*
X143472000Y-47244000D03*
X146012000Y-47244000D03*
X148552000Y-47244000D03*
X151092000Y-47244000D03*
%TD*%
D19*
%TO.C,J16*%
X147028000Y-123698000D03*
D20*
X147028000Y-121158000D03*
X147028000Y-118618000D03*
%TD*%
D19*
%TO.C,J12*%
X168364000Y-47244000D03*
D20*
X170904000Y-47244000D03*
X173444000Y-47244000D03*
X175984000Y-47244000D03*
X178524000Y-47244000D03*
%TD*%
D19*
%TO.C,J15*%
X147028000Y-112183333D03*
D20*
X147028000Y-109643333D03*
X147028000Y-107103333D03*
%TD*%
D21*
%TO.C,A1*%
X159543000Y-90808000D03*
D22*
X159843000Y-93838000D03*
X164693000Y-93838000D03*
D21*
X164993000Y-90808000D03*
%TD*%
D23*
%TO.C,C2*%
X126832000Y-97661570D03*
D24*
X126832000Y-102661570D03*
%TD*%
D25*
%TO.C,C5*%
X136868000Y-73152000D03*
D26*
X136868000Y-68152000D03*
%TD*%
D27*
%TO.C,H3*%
X184112000Y-48514000D03*
%TD*%
D17*
%TO.C,C11*%
X139662000Y-120142000D03*
D18*
X139662000Y-123642000D03*
%TD*%
D19*
%TO.C,J8*%
X113500000Y-47244000D03*
D20*
X116040000Y-47244000D03*
X118580000Y-47244000D03*
X121120000Y-47244000D03*
X123660000Y-47244000D03*
%TD*%
D19*
%TO.C,J14*%
X147028000Y-100668667D03*
D20*
X147028000Y-98128667D03*
X147028000Y-95588667D03*
%TD*%
D19*
%TO.C,J13*%
X147028000Y-89154000D03*
D20*
X147028000Y-86614000D03*
X147028000Y-84074000D03*
%TD*%
D19*
%TO.C,J9*%
X127216000Y-47244000D03*
D20*
X129756000Y-47244000D03*
X132296000Y-47244000D03*
X134836000Y-47244000D03*
X137376000Y-47244000D03*
%TD*%
D19*
%TO.C,J11*%
X154648000Y-47244000D03*
D20*
X157188000Y-47244000D03*
X159728000Y-47244000D03*
X162268000Y-47244000D03*
X164808000Y-47244000D03*
%TD*%
D23*
%TO.C,C1*%
X126832000Y-83292785D03*
D24*
X126832000Y-88292785D03*
%TD*%
D19*
%TO.C,J7*%
X113500000Y-60960000D03*
D20*
X113500000Y-58420000D03*
X113500000Y-55880000D03*
X113500000Y-53340000D03*
X113500000Y-50800000D03*
%TD*%
D17*
%TO.C,C6*%
X177000000Y-80897349D03*
D18*
X177000000Y-84397349D03*
%TD*%
D17*
%TO.C,C10*%
X139662000Y-108627333D03*
D18*
X139662000Y-112127333D03*
%TD*%
D28*
%TO.C,J2*%
X183604000Y-80728000D03*
X134604000Y-80728000D03*
X183604000Y-138728000D03*
X134604000Y-138728000D03*
D29*
X182334000Y-85598000D03*
D30*
X184874000Y-85598000D03*
X182334000Y-88138000D03*
X184874000Y-88138000D03*
X182334000Y-90678000D03*
X184874000Y-90678000D03*
X182334000Y-93218000D03*
X184874000Y-93218000D03*
X182334000Y-95758000D03*
X184874000Y-95758000D03*
X182334000Y-98298000D03*
X184874000Y-98298000D03*
X182334000Y-100838000D03*
X184874000Y-100838000D03*
X182334000Y-103378000D03*
X184874000Y-103378000D03*
X182334000Y-105918000D03*
X184874000Y-105918000D03*
X182334000Y-108458000D03*
X184874000Y-108458000D03*
X182334000Y-110998000D03*
X184874000Y-110998000D03*
X182334000Y-113538000D03*
X184874000Y-113538000D03*
X182334000Y-116078000D03*
X184874000Y-116078000D03*
X182334000Y-118618000D03*
X184874000Y-118618000D03*
X182334000Y-121158000D03*
X184874000Y-121158000D03*
X182334000Y-123698000D03*
X184874000Y-123698000D03*
X182334000Y-126238000D03*
X184874000Y-126238000D03*
X182334000Y-128778000D03*
X184874000Y-128778000D03*
X182334000Y-131318000D03*
X184874000Y-131318000D03*
X182334000Y-133858000D03*
X184874000Y-133858000D03*
%TD*%
D24*
%TO.C,F1*%
X121716000Y-120376000D03*
D21*
X115316000Y-119126000D03*
X115316000Y-121626000D03*
X118816000Y-119126000D03*
X118816000Y-121626000D03*
X124616000Y-119126000D03*
X124616000Y-121626000D03*
X128116000Y-119126000D03*
X128116000Y-121626000D03*
%TD*%
D27*
%TO.C,H2*%
X114516000Y-110744000D03*
%TD*%
D17*
%TO.C,C9*%
X139662000Y-96914667D03*
D18*
X139662000Y-100414667D03*
%TD*%
D27*
%TO.C,H1*%
X118834000Y-52324000D03*
%TD*%
M02*
