%TF.GenerationSoftware,KiCad,Pcbnew,10.0.0*%
%TF.CreationDate,2026-04-11T18:23:58+08:00*%
%TF.ProjectId,PCB v0.1,50434220-7630-42e3-912e-6b696361645f,A*%
%TF.SameCoordinates,Original*%
%TF.FileFunction,Soldermask,Bot*%
%TF.FilePolarity,Negative*%
%FSLAX46Y46*%
G04 Gerber Fmt 4.6, Leading zero omitted, Abs format (unit mm)*
G04 Created by KiCad (PCBNEW 10.0.0) date 2026-04-11 18:23:58*
%MOMM*%
%LPD*%
G01*
G04 APERTURE LIST*
G04 Aperture macros list*
%AMRoundRect*
0 Rectangle with rounded corners*
0 $1 Rounding radius*
0 $2 $3 $4 $5 $6 $7 $8 $9 X,Y pos of 4 corners*
0 Add a 4 corners polygon primitive as box body*
4,1,4,$2,$3,$4,$5,$6,$7,$8,$9,$2,$3,0*
0 Add four circle primitives for the rounded corners*
1,1,$1+$1,$2,$3*
1,1,$1+$1,$4,$5*
1,1,$1+$1,$6,$7*
1,1,$1+$1,$8,$9*
0 Add four rect primitives between the rounded corners*
20,1,$1+$1,$2,$3,$4,$5,0*
20,1,$1+$1,$4,$5,$6,$7,0*
20,1,$1+$1,$6,$7,$8,$9,0*
20,1,$1+$1,$8,$9,$2,$3,0*%
G04 Aperture macros list end*
%ADD10RoundRect,0.250000X-0.550000X0.550000X-0.550000X-0.550000X0.550000X-0.550000X0.550000X0.550000X0*%
%ADD11C,1.600000*%
%ADD12R,1.700000X1.700000*%
%ADD13C,1.700000*%
%ADD14C,1.400000*%
%ADD15RoundRect,0.770000X0.980000X-0.980000X0.980000X0.980000X-0.980000X0.980000X-0.980000X-0.980000X0*%
%ADD16C,3.500000*%
%ADD17C,2.200000*%
%ADD18C,1.850000*%
%ADD19RoundRect,0.250001X-0.949999X0.949999X-0.949999X-0.949999X0.949999X-0.949999X0.949999X0.949999X0*%
%ADD20C,2.400000*%
%ADD21R,0.900000X2.000000*%
%ADD22RoundRect,1.025000X1.025000X1.025000X-1.025000X1.025000X-1.025000X-1.025000X1.025000X-1.025000X0*%
%ADD23C,4.100000*%
%ADD24RoundRect,0.250000X0.750000X-0.750000X0.750000X0.750000X-0.750000X0.750000X-0.750000X-0.750000X0*%
%ADD25C,2.000000*%
%ADD26C,5.600000*%
%ADD27RoundRect,0.770000X0.980000X0.980000X-0.980000X0.980000X-0.980000X-0.980000X0.980000X-0.980000X0*%
%ADD28C,2.750000*%
%ADD29R,1.750000X1.750000*%
%ADD30C,1.750000*%
G04 APERTURE END LIST*
D10*
%TO.C,C8*%
X139662000Y-85344000D03*
D11*
X139662000Y-88844000D03*
%TD*%
D12*
%TO.C,J6*%
X140932000Y-47244000D03*
D13*
X143472000Y-47244000D03*
X146012000Y-47244000D03*
X148552000Y-47244000D03*
X151092000Y-47244000D03*
%TD*%
D12*
%TO.C,J12*%
X147028000Y-123698000D03*
D13*
X147028000Y-121158000D03*
X147028000Y-118618000D03*
%TD*%
D14*
%TO.C,U1*%
X112392000Y-91274000D03*
X112392000Y-80274000D03*
D15*
X117392000Y-88274000D03*
D16*
X117392000Y-83274000D03*
%TD*%
D12*
%TO.C,J8*%
X168364000Y-47244000D03*
D13*
X170904000Y-47244000D03*
X173444000Y-47244000D03*
X175984000Y-47244000D03*
X178524000Y-47244000D03*
%TD*%
D12*
%TO.C,J11*%
X147028000Y-112183333D03*
D13*
X147028000Y-109643333D03*
X147028000Y-107103333D03*
%TD*%
D17*
%TO.C,A1*%
X159543000Y-90808000D03*
D18*
X159843000Y-93838000D03*
X164693000Y-93838000D03*
D17*
X164993000Y-90808000D03*
%TD*%
D19*
%TO.C,C2*%
X126832000Y-97661570D03*
D20*
X126832000Y-102661570D03*
%TD*%
D21*
%TO.C,J1*%
X126092000Y-132454000D03*
X112592000Y-132454000D03*
D22*
X122942000Y-126454000D03*
D23*
X115742000Y-126454000D03*
%TD*%
D24*
%TO.C,C5*%
X136868000Y-73152000D03*
D25*
X136868000Y-68152000D03*
%TD*%
D26*
%TO.C,H3*%
X184112000Y-48514000D03*
%TD*%
D10*
%TO.C,C11*%
X139662000Y-120142000D03*
D11*
X139662000Y-123642000D03*
%TD*%
D12*
%TO.C,J4*%
X113500000Y-47244000D03*
D13*
X116040000Y-47244000D03*
X118580000Y-47244000D03*
X121120000Y-47244000D03*
X123660000Y-47244000D03*
%TD*%
D12*
%TO.C,J10*%
X147028000Y-100668667D03*
D13*
X147028000Y-98128667D03*
X147028000Y-95588667D03*
%TD*%
D14*
%TO.C,U2*%
X112354000Y-105752000D03*
X112354000Y-94752000D03*
D15*
X117354000Y-102752000D03*
D16*
X117354000Y-97752000D03*
%TD*%
D12*
%TO.C,J9*%
X147028000Y-89154000D03*
D13*
X147028000Y-86614000D03*
X147028000Y-84074000D03*
%TD*%
D14*
%TO.C,U2*%
X148972000Y-139453000D03*
X137972000Y-139453000D03*
D16*
X145972000Y-129453000D03*
D27*
X140972000Y-129453000D03*
%TD*%
D12*
%TO.C,J5*%
X127216000Y-47244000D03*
D13*
X129756000Y-47244000D03*
X132296000Y-47244000D03*
X134836000Y-47244000D03*
X137376000Y-47244000D03*
%TD*%
D12*
%TO.C,J7*%
X154648000Y-47244000D03*
D13*
X157188000Y-47244000D03*
X159728000Y-47244000D03*
X162268000Y-47244000D03*
X164808000Y-47244000D03*
%TD*%
D19*
%TO.C,C1*%
X126832000Y-83292785D03*
D20*
X126832000Y-88292785D03*
%TD*%
D12*
%TO.C,J3*%
X113500000Y-60960000D03*
D13*
X113500000Y-58420000D03*
X113500000Y-55880000D03*
X113500000Y-53340000D03*
X113500000Y-50800000D03*
%TD*%
D10*
%TO.C,C6*%
X177000000Y-80897349D03*
D11*
X177000000Y-84397349D03*
%TD*%
D10*
%TO.C,C10*%
X139662000Y-108627333D03*
D11*
X139662000Y-112127333D03*
%TD*%
D28*
%TO.C,J2*%
X183604000Y-80728000D03*
X134604000Y-80728000D03*
X183604000Y-138728000D03*
X134604000Y-138728000D03*
D29*
X182334000Y-85598000D03*
D30*
X184874000Y-85598000D03*
X182334000Y-88138000D03*
X184874000Y-88138000D03*
X182334000Y-90678000D03*
X184874000Y-90678000D03*
X182334000Y-93218000D03*
X184874000Y-93218000D03*
X182334000Y-95758000D03*
X184874000Y-95758000D03*
X182334000Y-98298000D03*
X184874000Y-98298000D03*
X182334000Y-100838000D03*
X184874000Y-100838000D03*
X182334000Y-103378000D03*
X184874000Y-103378000D03*
X182334000Y-105918000D03*
X184874000Y-105918000D03*
X182334000Y-108458000D03*
X184874000Y-108458000D03*
X182334000Y-110998000D03*
X184874000Y-110998000D03*
X182334000Y-113538000D03*
X184874000Y-113538000D03*
X182334000Y-116078000D03*
X184874000Y-116078000D03*
X182334000Y-118618000D03*
X184874000Y-118618000D03*
X182334000Y-121158000D03*
X184874000Y-121158000D03*
X182334000Y-123698000D03*
X184874000Y-123698000D03*
X182334000Y-126238000D03*
X184874000Y-126238000D03*
X182334000Y-128778000D03*
X184874000Y-128778000D03*
X182334000Y-131318000D03*
X184874000Y-131318000D03*
X182334000Y-133858000D03*
X184874000Y-133858000D03*
%TD*%
D20*
%TO.C,F1*%
X121622000Y-120338000D03*
D17*
X128022000Y-121588000D03*
X128022000Y-119088000D03*
X124522000Y-121588000D03*
X124522000Y-119088000D03*
X118722000Y-121588000D03*
X118722000Y-119088000D03*
X115222000Y-121588000D03*
X115222000Y-119088000D03*
%TD*%
D26*
%TO.C,H2*%
X114516000Y-110744000D03*
%TD*%
D10*
%TO.C,C9*%
X139662000Y-96914667D03*
D11*
X139662000Y-100414667D03*
%TD*%
D26*
%TO.C,H1*%
X118834000Y-52324000D03*
%TD*%
D14*
%TO.C,U1*%
X112484000Y-76914000D03*
X112484000Y-65914000D03*
D16*
X122484000Y-73914000D03*
D15*
X122484000Y-68914000D03*
%TD*%
M02*
